<svg xmlns="http://www.w3.org/2000/svg" width="1020" height="560" viewBox="0 0 1020 560" role="img" aria-labelledby="title desc">
  <title id="title">Direct TLBI IS vs NSH timing</title>
  <desc id="desc">Direct TLBI timing shows protected mode makes local TLBI expensive while IS and NSH are nearly identical.</desc>
  <rect width="100%" height="100%" fill="#FFFFFF"/>
  <text x="58.0" y="42.0" font-size="22" fill="#1F2933" font-weight="700" text-anchor="start">Direct TLBI timing: IS vs NSH</text>
  <text x="58.0" y="66.0" font-size="13" fill="#64707D" font-weight="400" text-anchor="start">nslots=2048, reps=2, IRQ-off kernel module timing</text>
  <line x1="105.0" y1="435.0" x2="925.0" y2="435.0" stroke="#5C6670" stroke-width="1.2"/>
  <line x1="105.0" y1="115.0" x2="105.0" y2="435.0" stroke="#5C6670" stroke-width="1.2"/>
  <line x1="105.0" y1="435.0" x2="925.0" y2="435.0" stroke="#E8EDF3" stroke-width="1"/>
  <line x1="100.0" y1="435.0" x2="105.0" y2="435.0" stroke="#5C6670" stroke-width="1"/>
  <text x="95.0" y="439.0" font-size="11" fill="#64707D" font-weight="400" text-anchor="end">0</text>
  <line x1="105.0" y1="385.0" x2="925.0" y2="385.0" stroke="#E8EDF3" stroke-width="1"/>
  <line x1="100.0" y1="385.0" x2="105.0" y2="385.0" stroke="#5C6670" stroke-width="1"/>
  <text x="95.0" y="389.0" font-size="11" fill="#64707D" font-weight="400" text-anchor="end">50</text>
  <line x1="105.0" y1="335.0" x2="925.0" y2="335.0" stroke="#E8EDF3" stroke-width="1"/>
  <line x1="100.0" y1="335.0" x2="105.0" y2="335.0" stroke="#5C6670" stroke-width="1"/>
  <text x="95.0" y="339.0" font-size="11" fill="#64707D" font-weight="400" text-anchor="end">100</text>
  <line x1="105.0" y1="285.0" x2="925.0" y2="285.0" stroke="#E8EDF3" stroke-width="1"/>
  <line x1="100.0" y1="285.0" x2="105.0" y2="285.0" stroke="#5C6670" stroke-width="1"/>
  <text x="95.0" y="289.0" font-size="11" fill="#64707D" font-weight="400" text-anchor="end">150</text>
  <line x1="105.0" y1="235.0" x2="925.0" y2="235.0" stroke="#E8EDF3" stroke-width="1"/>
  <line x1="100.0" y1="235.0" x2="105.0" y2="235.0" stroke="#5C6670" stroke-width="1"/>
  <text x="95.0" y="239.0" font-size="11" fill="#64707D" font-weight="400" text-anchor="end">200</text>
  <line x1="105.0" y1="185.0" x2="925.0" y2="185.0" stroke="#E8EDF3" stroke-width="1"/>
  <line x1="100.0" y1="185.0" x2="105.0" y2="185.0" stroke="#5C6670" stroke-width="1"/>
  <text x="95.0" y="189.0" font-size="11" fill="#64707D" font-weight="400" text-anchor="end">250</text>
  <line x1="105.0" y1="135.0" x2="925.0" y2="135.0" stroke="#E8EDF3" stroke-width="1"/>
  <line x1="100.0" y1="135.0" x2="105.0" y2="135.0" stroke="#5C6670" stroke-width="1"/>
  <text x="95.0" y="139.0" font-size="11" fill="#64707D" font-weight="400" text-anchor="end">300</text>
  <text x="35.0" y="103.0" font-size="12" fill="#64707D" font-weight="400" text-anchor="start">ns/slot</text>
  <rect x="306.6" y="425.0" width="62.0" height="10.0" rx="5" fill="#64748B"/>
  <text x="337.6" y="416.0" font-size="11" fill="#64748B" font-weight="700" text-anchor="middle">10.019</text>
  <text x="337.6" y="460.0" font-size="12" fill="#1F2933" font-weight="700" text-anchor="middle">NSH</text>
  <rect x="382.6" y="411.8" width="62.0" height="23.2" rx="5" fill="#D97706"/>
  <text x="413.6" y="402.8" font-size="11" fill="#D97706" font-weight="700" text-anchor="middle">23.232</text>
  <text x="413.6" y="460.0" font-size="12" fill="#1F2933" font-weight="700" text-anchor="middle">IS</text>
  <path d="M 337.6 377.8 L 337.6 369.8 L 413.6 369.8 L 413.6 377.8" fill="none" stroke="#5C6670" stroke-width="1.2"/>
  <text x="375.6" y="363.8" font-size="12" fill="#64707D" font-weight="400" text-anchor="middle">IS-NSH = +13.213 ns</text>
  <text x="375.6" y="489.0" font-size="14" fill="#1F2933" font-weight="700" text-anchor="middle">NVHE</text>
  <rect x="610.0" y="146.2" width="62.0" height="288.8" rx="5" fill="#64748B"/>
  <text x="641.0" y="137.2" font-size="11" fill="#64748B" font-weight="700" text-anchor="middle">288.837</text>
  <text x="641.0" y="460.0" font-size="12" fill="#1F2933" font-weight="700" text-anchor="middle">NSH</text>
  <rect x="686.0" y="146.1" width="62.0" height="288.9" rx="5" fill="#D97706"/>
  <text x="717.0" y="137.1" font-size="11" fill="#D97706" font-weight="700" text-anchor="middle">288.896</text>
  <text x="717.0" y="460.0" font-size="12" fill="#1F2933" font-weight="700" text-anchor="middle">IS</text>
  <path d="M 641.0 112.1 L 641.0 104.1 L 717.0 104.1 L 717.0 112.1" fill="none" stroke="#5C6670" stroke-width="1.2"/>
  <text x="679.0" y="98.1" font-size="12" fill="#64707D" font-weight="400" text-anchor="middle">IS-NSH = +0.059 ns</text>
  <text x="679.0" y="489.0" font-size="14" fill="#1F2933" font-weight="700" text-anchor="middle">protected</text>
  <rect x="746.0" y="58.0" width="158" height="63" rx="6" fill="#FFFFFF" stroke="#D8DEE8" stroke-width="1"/>
  <rect x="760.0" y="73.0" width="18" height="18" rx="3" fill="#64748B"/>
  <text x="788.0" y="87.0" font-size="12" fill="#1F2933" font-weight="400" text-anchor="start">NSH vae1</text>
  <rect x="760.0" y="99.0" width="18" height="18" rx="3" fill="#D97706"/>
  <text x="788.0" y="113.0" font-size="12" fill="#1F2933" font-weight="400" text-anchor="start">IS vae1is</text>
  <text x="510.0" y="532.0" font-size="12" fill="#64707D" font-weight="400" text-anchor="middle">Source: experiments/munmap-tlbi/results/tlbi-ab-n80/tlbi-ab-{nvhe,protected}.txt</text>
</svg>
