<svg xmlns="http://www.w3.org/2000/svg" width="1180" height="570" viewBox="0 0 1180 570" role="img" aria-labelledby="title desc">
  <title id="title">Pixel vs N80 munmap relative slowdown</title>
  <desc id="desc">Same op_sweep munmap threshold points on Pixel and N80, shown as relative slowdown versus NVHE.</desc>
  <rect width="100%" height="100%" fill="#FFFFFF"/>
  <text x="590.0" y="34.0" font-size="21" fill="#1F2933" font-weight="700" text-anchor="middle">Pixel vs N80: relative slowdown in the same munmap experiment</text>
  <text x="590.0" y="57.0" font-size="13" fill="#64707D" font-weight="400" text-anchor="middle">(protected / NVHE - 1) * 100%; same timed munmap-only window as the absolute-gap figure</text>
  <rect x="480.0" y="78.0" width="18" height="18" fill="#6B7280" opacity="0.88"/>
  <text x="506.0" y="91.0" font-size="12" fill="#1F2933" font-weight="400" text-anchor="start">N80</text>
  <rect x="576.0" y="78.0" width="18" height="18" fill="#1F8A70" opacity="0.88"/>
  <text x="602.0" y="91.0" font-size="12" fill="#1F2933" font-weight="400" text-anchor="start">Pixel</text>
  <text x="86.0" y="100.0" font-size="15" fill="#1F2933" font-weight="700" text-anchor="start">Full scale: relative N80 spike</text>
  <line x1="86.0" y1="412.1" x2="556.0" y2="412.1" stroke="#E8EDF3"/>
  <text x="76.0" y="416.1" font-size="11" fill="#64707D" font-weight="400" text-anchor="end">0</text>
  <line x1="86.0" y1="294.5" x2="556.0" y2="294.5" stroke="#E8EDF3"/>
  <text x="76.0" y="298.5" font-size="11" fill="#64707D" font-weight="400" text-anchor="end">200</text>
  <line x1="86.0" y1="176.8" x2="556.0" y2="176.8" stroke="#E8EDF3"/>
  <text x="76.0" y="180.8" font-size="11" fill="#64707D" font-weight="400" text-anchor="end">400</text>
  <line x1="86.0" y1="412.1" x2="556.0" y2="412.1" stroke="#5C6670" stroke-width="1"/>
  <line x1="86.0" y1="118.0" x2="86.0" y2="418.0" stroke="#5C6670"/>
  <line x1="86.0" y1="418.0" x2="556.0" y2="418.0" stroke="#5C6670"/>
  <rect x="112.8" y="332.9" width="28.0" height="79.2" fill="#6B7280" opacity="0.88"/>
  <text x="126.8" y="325.9" font-size="10" fill="#1F2933" font-weight="400" text-anchor="middle">+134.6%</text>
  <rect x="148.8" y="404.9" width="28.0" height="7.2" fill="#1F8A70" opacity="0.88"/>
  <text x="162.8" y="397.9" font-size="10" fill="#1F2933" font-weight="400" text-anchor="middle">+12.3%</text>
  <text x="144.8" y="442.0" font-size="11" fill="#1F2933" font-weight="400" text-anchor="middle">1.9MB</text>
  <text x="144.8" y="459.0" font-size="10" fill="#64707D" font-weight="400" text-anchor="middle">dense</text>
  <rect x="230.2" y="411.9" width="28.0" height="1.0" fill="#6B7280" opacity="0.88"/>
  <text x="244.2" y="404.9" font-size="10" fill="#1F2933" font-weight="400" text-anchor="middle">+0.4%</text>
  <rect x="266.2" y="412.1" width="28.0" height="1.2" fill="#1F8A70" opacity="0.88"/>
  <text x="280.2" y="414.0" font-size="10" fill="#1F2933" font-weight="400" text-anchor="middle">-2.0%</text>
  <text x="262.2" y="442.0" font-size="11" fill="#1F2933" font-weight="400" text-anchor="middle">2.0MB</text>
  <text x="262.2" y="459.0" font-size="10" fill="#64707D" font-weight="400" text-anchor="middle">dense</text>
  <rect x="347.8" y="179.1" width="28.0" height="233.1" fill="#6B7280" opacity="0.88"/>
  <text x="361.8" y="172.1" font-size="10" fill="#1F2933" font-weight="400" text-anchor="middle">+396.2%</text>
  <rect x="383.8" y="412.1" width="28.0" height="3.2" fill="#1F8A70" opacity="0.88"/>
  <text x="397.8" y="414.0" font-size="10" fill="#1F2933" font-weight="400" text-anchor="middle">-5.5%</text>
  <text x="379.8" y="442.0" font-size="11" fill="#1F2933" font-weight="400" text-anchor="middle">6.4MB</text>
  <text x="379.8" y="459.0" font-size="10" fill="#64707D" font-weight="400" text-anchor="middle">sparse</text>
  <rect x="465.2" y="410.6" width="28.0" height="1.5" fill="#6B7280" opacity="0.88"/>
  <text x="479.2" y="403.6" font-size="10" fill="#1F2933" font-weight="400" text-anchor="middle">+2.6%</text>
  <rect x="501.2" y="410.4" width="28.0" height="1.7" fill="#1F8A70" opacity="0.88"/>
  <text x="515.2" y="403.4" font-size="10" fill="#1F2933" font-weight="400" text-anchor="middle">+2.9%</text>
  <text x="497.2" y="442.0" font-size="11" fill="#1F2933" font-weight="400" text-anchor="middle">64MB</text>
  <text x="497.2" y="459.0" font-size="10" fill="#64707D" font-weight="400" text-anchor="middle">dense</text>
  <text x="684.0" y="100.0" font-size="15" fill="#1F2933" font-weight="700" text-anchor="start">Pixel detail: -10% to +15%</text>
  <line x1="684.0" y1="418.0" x2="1094.0" y2="418.0" stroke="#E8EDF3"/>
  <text x="674.0" y="422.0" font-size="11" fill="#64707D" font-weight="400" text-anchor="end">-10</text>
  <line x1="684.0" y1="358.0" x2="1094.0" y2="358.0" stroke="#E8EDF3"/>
  <text x="674.0" y="362.0" font-size="11" fill="#64707D" font-weight="400" text-anchor="end">-5</text>
  <line x1="684.0" y1="298.0" x2="1094.0" y2="298.0" stroke="#E8EDF3"/>
  <text x="674.0" y="302.0" font-size="11" fill="#64707D" font-weight="400" text-anchor="end">0</text>
  <line x1="684.0" y1="238.0" x2="1094.0" y2="238.0" stroke="#E8EDF3"/>
  <text x="674.0" y="242.0" font-size="11" fill="#64707D" font-weight="400" text-anchor="end">5</text>
  <line x1="684.0" y1="178.0" x2="1094.0" y2="178.0" stroke="#E8EDF3"/>
  <text x="674.0" y="182.0" font-size="11" fill="#64707D" font-weight="400" text-anchor="end">10</text>
  <line x1="684.0" y1="118.0" x2="1094.0" y2="118.0" stroke="#E8EDF3"/>
  <text x="674.0" y="122.0" font-size="11" fill="#64707D" font-weight="400" text-anchor="end">15</text>
  <line x1="684.0" y1="298.0" x2="1094.0" y2="298.0" stroke="#5C6670" stroke-width="1"/>
  <line x1="684.0" y1="118.0" x2="684.0" y2="418.0" stroke="#5C6670"/>
  <line x1="684.0" y1="418.0" x2="1094.0" y2="418.0" stroke="#5C6670"/>
  <rect x="716.2" y="150.3" width="38.0" height="147.7" fill="#1F8A70" opacity="0.88"/>
  <text x="735.2" y="143.3" font-size="10" fill="#1F2933" font-weight="400" text-anchor="middle">+12.3%</text>
  <text x="735.2" y="442.0" font-size="11" fill="#1F2933" font-weight="400" text-anchor="middle">1.9MB</text>
  <text x="735.2" y="459.0" font-size="10" fill="#64707D" font-weight="400" text-anchor="middle">dense</text>
  <rect x="818.8" y="298.0" width="38.0" height="24.5" fill="#1F8A70" opacity="0.88"/>
  <text x="837.8" y="338.5" font-size="10" fill="#1F2933" font-weight="400" text-anchor="middle">-2.0%</text>
  <text x="837.8" y="442.0" font-size="11" fill="#1F2933" font-weight="400" text-anchor="middle">2.0MB</text>
  <text x="837.8" y="459.0" font-size="10" fill="#64707D" font-weight="400" text-anchor="middle">dense</text>
  <rect x="921.2" y="298.0" width="38.0" height="66.1" fill="#1F8A70" opacity="0.88"/>
  <text x="940.2" y="380.1" font-size="10" fill="#1F2933" font-weight="400" text-anchor="middle">-5.5%</text>
  <text x="940.2" y="442.0" font-size="11" fill="#1F2933" font-weight="400" text-anchor="middle">6.4MB</text>
  <text x="940.2" y="459.0" font-size="10" fill="#64707D" font-weight="400" text-anchor="middle">sparse</text>
  <rect x="1023.8" y="263.4" width="38.0" height="34.6" fill="#1F8A70" opacity="0.88"/>
  <text x="1042.8" y="256.4" font-size="10" fill="#1F2933" font-weight="400" text-anchor="middle">+2.9%</text>
  <text x="1042.8" y="442.0" font-size="11" fill="#1F2933" font-weight="400" text-anchor="middle">64MB</text>
  <text x="1042.8" y="459.0" font-size="10" fill="#64707D" font-weight="400" text-anchor="middle">dense</text>
  <text x="28.0" y="126.0" font-size="12" fill="#64707D" font-weight="400" text-anchor="start">%</text>
  <text x="684.0" y="490.0" font-size="12" fill="#64707D" font-weight="400" text-anchor="start">Right panel expands Pixel only; N80 1.9MB and 6.4MB relative gaps are off this scale.</text>
  <text x="590.0" y="540.0" font-size="12" fill="#64707D" font-weight="400" text-anchor="middle">Sources: N80 op-sweep-n80/{protected,nvhe}.txt; Pixel ported-suite-diff.csv</text>
</svg>
